<svg width="106" height="106" viewBox="0 0 106 106" fill="none" xmlns="http://www.w3.org/2000/svg">
<g clip-path="url(#clip0_117_1221)">
<path d="M86.0366 54.5458C79.1025 36.5258 54.4133 35.5542 60.3758 9.36332C60.8175 7.41999 58.7416 5.91832 57.0633 6.93416C41.0308 16.3858 29.5033 35.3333 39.1758 60.155C39.9708 62.1867 37.5858 64.0858 35.8633 62.7608C27.8691 56.71 27.03 48.0092 27.7366 41.7817C28.0016 39.485 24.9983 38.3808 23.7175 40.28C20.7141 44.8733 17.6666 52.2933 17.6666 63.4675C19.345 88.2008 40.2358 95.7975 47.7441 96.7692C58.4766 98.1383 70.0925 96.1508 78.44 88.51C87.6266 79.9858 90.9833 66.3825 86.0366 54.5458ZM45.05 76.7617C51.41 75.2158 54.6783 70.6225 55.5616 66.5592C57.0191 60.2433 51.3216 54.06 55.1641 44.0783C56.6216 52.3375 69.6066 57.505 69.6066 66.515C69.96 77.6892 57.8583 87.2733 45.05 76.7617Z" fill="white"/>
</g>
<defs>
<clipPath id="clip0_117_1221">
<rect width="106" height="106" fill="white"/>
</clipPath>
</defs>
</svg>
