<svg width="64" height="64" viewBox="0 0 64 64" fill="none" xmlns="http://www.w3.org/2000/svg">
<path d="M20.8 5.33334H43.2C51.7333 5.33334 58.6666 12.2667 58.6666 20.8V43.2C58.6666 47.302 57.0371 51.236 54.1366 54.1366C51.236 57.0372 47.302 58.6667 43.2 58.6667H20.8C12.2666 58.6667 5.33331 51.7333 5.33331 43.2V20.8C5.33331 16.698 6.96283 12.764 9.86339 9.86343C12.764 6.96286 16.698 5.33334 20.8 5.33334ZM20.2666 10.6667C17.7206 10.6667 15.2788 11.6781 13.4784 13.4785C11.6781 15.2788 10.6666 17.7206 10.6666 20.2667V43.7333C10.6666 49.04 14.96 53.3333 20.2666 53.3333H43.7333C46.2794 53.3333 48.7212 52.3219 50.5215 50.5216C52.3219 48.7212 53.3333 46.2794 53.3333 43.7333V20.2667C53.3333 14.96 49.04 10.6667 43.7333 10.6667H20.2666ZM46 14.6667C46.884 14.6667 47.7319 15.0179 48.357 15.643C48.9821 16.2681 49.3333 17.116 49.3333 18C49.3333 18.8841 48.9821 19.7319 48.357 20.357C47.7319 20.9822 46.884 21.3333 46 21.3333C45.1159 21.3333 44.2681 20.9822 43.643 20.357C43.0178 19.7319 42.6666 18.8841 42.6666 18C42.6666 17.116 43.0178 16.2681 43.643 15.643C44.2681 15.0179 45.1159 14.6667 46 14.6667ZM32 18.6667C35.5362 18.6667 38.9276 20.0714 41.4281 22.5719C43.9286 25.0724 45.3333 28.4638 45.3333 32C45.3333 35.5362 43.9286 38.9276 41.4281 41.4281C38.9276 43.9286 35.5362 45.3333 32 45.3333C28.4638 45.3333 25.0724 43.9286 22.5719 41.4281C20.0714 38.9276 18.6666 35.5362 18.6666 32C18.6666 28.4638 20.0714 25.0724 22.5719 22.5719C25.0724 20.0714 28.4638 18.6667 32 18.6667ZM32 24C29.8782 24 27.8434 24.8429 26.3431 26.3432C24.8428 27.8434 24 29.8783 24 32C24 34.1217 24.8428 36.1566 26.3431 37.6569C27.8434 39.1572 29.8782 40 32 40C34.1217 40 36.1565 39.1572 37.6568 37.6569C39.1571 36.1566 40 34.1217 40 32C40 29.8783 39.1571 27.8434 37.6568 26.3432C36.1565 24.8429 34.1217 24 32 24Z" fill="#FF4081"/>
</svg>
