<svg width="135" height="135" viewBox="0 0 135 135" fill="none" xmlns="http://www.w3.org/2000/svg">
<g clip-path="url(#clip0_117_591)">
<path d="M67.5 17.875C80.9329 17.875 91.8125 28.7546 91.8125 42.1875C91.8125 55.6204 80.9329 66.5 67.5 66.5C54.0671 66.5 43.1875 55.6204 43.1875 42.1875C43.1875 28.7546 54.0671 17.875 67.5 17.875ZM67.5 27.8984C59.6071 27.8984 53.2109 34.2946 53.2109 42.1875C53.2109 50.0804 59.6071 56.4766 67.5 56.4766C75.3929 56.4766 81.7891 50.0804 81.7891 42.1875C81.7891 34.2946 75.3929 27.8984 67.5 27.8984Z" fill="white" stroke="black" stroke-width="2"/>
<mask id="path-2-inside-1_117_591" fill="white">
<path d="M67.5 73.8281C84.3961 73.8281 118.125 82.3078 118.125 99.1406V118.125H16.875V99.1406C16.875 82.3078 50.6039 73.8281 67.5 73.8281ZM67.5 85.8516C48.7055 85.8516 28.8984 95.0906 28.8984 99.1406V106.102H106.102V99.1406C106.102 95.0906 86.2945 85.8516 67.5 85.8516Z"/>
</mask>
<path d="M67.5 73.8281C84.3961 73.8281 118.125 82.3078 118.125 99.1406V118.125H16.875V99.1406C16.875 82.3078 50.6039 73.8281 67.5 73.8281ZM67.5 85.8516C48.7055 85.8516 28.8984 95.0906 28.8984 99.1406V106.102H106.102V99.1406C106.102 95.0906 86.2945 85.8516 67.5 85.8516Z" fill="white"/>
<path d="M118.125 118.125V120.125H120.125V118.125H118.125ZM16.875 118.125H14.875V120.125H16.875V118.125ZM67.5 85.8516V83.8516V85.8516ZM28.8984 106.102H26.8984V108.102H28.8984V106.102ZM106.102 106.102V108.102H108.102V106.102H106.102ZM67.5 73.8281V75.8281C75.698 75.8281 88.1015 77.9011 98.4048 82.0286C103.555 84.0918 108.054 86.619 111.234 89.5539C114.401 92.4763 116.125 95.667 116.125 99.1406H118.125H120.125C120.125 94.1978 117.633 90.0163 113.947 86.6145C110.275 83.2253 105.286 80.4764 99.8923 78.3155C89.1071 73.995 76.1981 71.8281 67.5 71.8281V73.8281ZM118.125 99.1406H116.125V118.125H118.125H120.125V99.1406H118.125ZM118.125 118.125V116.125H16.875V118.125V120.125H118.125V118.125ZM16.875 118.125H18.875V99.1406H16.875H14.875V118.125H16.875ZM16.875 99.1406H18.875C18.875 95.667 20.5992 92.4763 23.7656 89.5539C26.9456 86.619 31.4451 84.0918 36.5952 82.0286C46.8985 77.9011 59.302 75.8281 67.5 75.8281V73.8281V71.8281C58.8019 71.8281 45.8929 73.995 35.1077 78.3155C29.7135 80.4764 24.7249 83.2253 21.0527 86.6145C17.3669 90.0163 14.875 94.1978 14.875 99.1406H16.875ZM67.5 85.8516V83.8516C57.8062 83.8516 47.91 86.2269 40.4316 89.1113C36.6929 90.5533 33.4866 92.15 31.1765 93.6922C30.0273 94.4594 29.0327 95.2573 28.3021 96.0662C27.6294 96.8109 26.8984 97.8725 26.8984 99.1406H28.8984H30.8984C30.8984 99.3963 30.7865 99.2832 31.2704 98.7474C31.6964 98.2759 32.396 97.6875 33.3974 97.019C35.3884 95.6898 38.3086 94.2174 41.871 92.8434C48.9947 90.0957 58.3993 87.8516 67.5 87.8516V85.8516ZM28.8984 99.1406H26.8984V106.102H28.8984H30.8984V99.1406H28.8984ZM28.8984 106.102V108.102H106.102V106.102V104.102H28.8984V106.102ZM106.102 106.102H108.102V99.1406H106.102H104.102V106.102H106.102ZM106.102 99.1406H108.102C108.102 97.8725 107.371 96.8109 106.698 96.0662C105.967 95.2573 104.973 94.4594 103.824 93.6922C101.513 92.15 98.3071 90.5533 94.5685 89.1113C87.09 86.2269 77.1938 83.8516 67.5 83.8516V85.8516V87.8516C76.6007 87.8516 86.0053 90.0957 93.129 92.8434C96.6914 94.2174 99.6116 95.6898 101.603 97.019C102.604 97.6875 103.304 98.2759 103.73 98.7474C104.214 99.2832 104.102 99.3963 104.102 99.1406H106.102Z" fill="black" mask="url(#path-2-inside-1_117_591)"/>
</g>
<defs>
<clipPath id="clip0_117_591">
<rect width="135" height="135" fill="white"/>
</clipPath>
</defs>
</svg>
